<?xml version="1.0" encoding="UTF-8" standalone="no"?>
<!-- Created with Inkscape (http://www.inkscape.org/) -->

<svg
   xmlns:dc="http://purl.org/dc/elements/1.1/"
   xmlns:cc="http://creativecommons.org/ns#"
   xmlns:rdf="http://www.w3.org/1999/02/22-rdf-syntax-ns#"
   xmlns:svg="http://www.w3.org/2000/svg"
   xmlns="http://www.w3.org/2000/svg"
   xmlns:xlink="http://www.w3.org/1999/xlink"
   xmlns:sodipodi="http://sodipodi.sourceforge.net/DTD/sodipodi-0.dtd"
   xmlns:inkscape="http://www.inkscape.org/namespaces/inkscape"
   width="110.08749mm"
   height="99.688385mm"
   viewBox="0 0 390.0738 353.22656"
   id="svg2"
   version="1.1"
   inkscape:version="0.91 r13725"
   sodipodi:docname="boost-quickbook-support.svg"
   inkscape:export-filename="./boost-quickbook-support.png"
   inkscape:export-xdpi="150"
   inkscape:export-ydpi="150">
  <defs
     id="defs4">
    <linearGradient
       x1="196.64999"
       x2="182.97"
       gradientTransform="matrix(1.3622,0,0,0.73409,0,140)"
       y1="1437.3"
       gradientUnits="userSpaceOnUse"
       xlink:href="#linearGradient378"
       y2="1493.9"
       id="linearGradient666" />
    <linearGradient
       x1="211.96001"
       x2="212.00999"
       gradientTransform="matrix(0.96515,0,0,1.0361,0,140)"
       y1="1048.1"
       gradientUnits="userSpaceOnUse"
       xlink:href="#linearGradient378"
       y2="1068.4"
       id="linearGradient665" />
    <linearGradient
       x1="222.24001"
       x2="227.17"
       gradientTransform="matrix(0.90728,0,0,1.1022,0,140)"
       y1="1010.1"
       gradientUnits="userSpaceOnUse"
       xlink:href="#linearGradient410"
       y2="985.21002"
       id="linearGradient664" />
    <linearGradient
       x1="140.17999"
       x2="147.69"
       gradientTransform="matrix(1.5147,0,0,0.66019,0,140)"
       y1="1674.5"
       gradientUnits="userSpaceOnUse"
       xlink:href="#linearGradient378"
       y2="1669.3"
       id="linearGradient663" />
    <linearGradient
       x1="175.50999"
       x2="167.52"
       gradientTransform="matrix(1.5147,0,0,0.66019,0,140)"
       y1="1674.5"
       gradientUnits="userSpaceOnUse"
       xlink:href="#linearGradient378"
       y2="1667"
       id="linearGradient662" />
    <linearGradient
       x1="140.25999"
       x2="157.33"
       gradientTransform="matrix(1.5147,0,0,0.66019,0,140)"
       y1="1696.2"
       gradientUnits="userSpaceOnUse"
       xlink:href="#linearGradient366"
       y2="1634.5"
       id="linearGradient661" />
    <linearGradient
       x1="191.07001"
       x2="191.07001"
       gradientTransform="matrix(1.3622,0,0,0.73409,0,140)"
       y1="1478.2"
       gradientUnits="userSpaceOnUse"
       xlink:href="#linearGradient410"
       y2="1444.9"
       id="linearGradient660" />
    <linearGradient
       x1="143.16"
       x2="164.78999"
       gradientTransform="matrix(1.615,0,0,0.61918,0,140)"
       y1="1700.8"
       gradientUnits="userSpaceOnUse"
       xlink:href="#linearGradient378"
       y2="1776.3"
       id="linearGradient659" />
    <linearGradient
       x1="131.92"
       x2="189.14"
       gradientTransform="matrix(1.5147,0,0,0.66019,0,280)"
       y1="1448.5"
       gradientUnits="userSpaceOnUse"
       xlink:href="#linearGradient366"
       y2="1448.5"
       id="linearGradient658" />
    <linearGradient
       x1="205.99001"
       x2="211.85001"
       gradientTransform="matrix(1.176,0,0,0.85037,0,280)"
       y1="1137.6"
       gradientUnits="userSpaceOnUse"
       spreadMethod="reflect"
       y2="1082.9"
       id="linearGradient657">
      <stop
         offset="0"
         style="stop-color:#b6e8ff"
         id="stop363" />
      <stop
         offset="1"
         style="stop-color:#2389db"
         id="stop364" />
    </linearGradient>
    <radialGradient
       r="44.525002"
       gradientTransform="scale(1.4598,0.685)"
       cx="169.88"
       cy="1794.9"
       gradientUnits="userSpaceOnUse"
       xlink:href="#linearGradient443"
       id="radialGradient656" />
    <linearGradient
       id="linearGradient443">
      <stop
         offset="0"
         style="stop-color:#000000;stop-opacity:.39216"
         id="stop444" />
      <stop
         offset="1"
         style="stop-color:#000000;stop-opacity:0"
         id="stop445" />
    </linearGradient>
    <linearGradient
       x1="126.14"
       x2="115.17"
       gradientTransform="matrix(1.9379,0,0,0.51603,0,140)"
       y1="1985.5"
       gradientUnits="userSpaceOnUse"
       xlink:href="#linearGradient378"
       y2="1976.4"
       id="linearGradient654" />
    <linearGradient
       x1="250.28999"
       x2="252.10001"
       gradientTransform="matrix(0.83406,0,0,1.199,0,132)"
       y1="868.12"
       gradientUnits="userSpaceOnUse"
       xlink:href="#linearGradient378"
       y2="885.65002"
       id="linearGradient653" />
    <linearGradient
       id="linearGradient410">
      <stop
         offset="0"
         style="stop-color:#ff0b00"
         id="stop411" />
      <stop
         offset="1"
         style="stop-color:#810500"
         id="stop412" />
    </linearGradient>
    <linearGradient
       x1="277.48999"
       x2="286.70999"
       gradientTransform="matrix(0.74743,0,0,1.3379,0.25,132)"
       y1="794.37"
       gradientUnits="userSpaceOnUse"
       xlink:href="#linearGradient410"
       y2="776.56"
       id="linearGradient652" />
    <linearGradient
       x1="241.41"
       x2="243.66"
       gradientTransform="matrix(0.99134,0,0,1.0087,0,140)"
       y1="998.70001"
       gradientUnits="userSpaceOnUse"
       xlink:href="#linearGradient378"
       y2="1051.4"
       id="linearGradient651" />
    <linearGradient
       id="linearGradient366">
      <stop
         offset="0"
         style="stop-color:#d9d9b4"
         id="stop367" />
      <stop
         offset="1"
         style="stop-color:#a3a36b"
         id="stop368" />
    </linearGradient>
    <linearGradient
       x1="121.74"
       x2="116.15"
       gradientTransform="matrix(1.9585,0,0,0.51059,0,280)"
       y1="1726.7"
       gradientUnits="userSpaceOnUse"
       xlink:href="#linearGradient366"
       y2="1719"
       id="linearGradient650" />
    <linearGradient
       id="linearGradient378">
      <stop
         offset="0"
         style="stop-color:#ffffff"
         id="stop379" />
      <stop
         offset="1"
         style="stop-color:#ffffff;stop-opacity:0"
         id="stop380" />
    </linearGradient>
    <linearGradient
       x1="433.23001"
       x2="504.89999"
       gradientTransform="matrix(0.44846,0,0,2.2298,0,280)"
       y1="408.78"
       gradientUnits="userSpaceOnUse"
       xlink:href="#linearGradient378"
       y2="408.78"
       id="linearGradient649" />
    <linearGradient
       x1="296.14001"
       x2="230.00999"
       gradientTransform="matrix(0.88068,0,0,1.1355,0,280)"
       y1="768.03998"
       gradientUnits="userSpaceOnUse"
       y2="833.84998"
       id="linearGradient648">
      <stop
         offset="0"
         style="stop-color:#4dad2c"
         id="stop371" />
      <stop
         offset="1"
         style="stop-color:#e3ff86"
         id="stop372" />
    </linearGradient>
    <linearGradient
       y2="183.58"
       y1="183.58"
       gradientTransform="matrix(-0.874,-0.0803,-0.0511,1.1394,883.59,48.951)"
       x2="976.10999"
       gradientUnits="userSpaceOnUse"
       x1="641.15002"
       id="SVGID_1_">
      <stop
         offset="0"
         stop-color="#fff"
         id="stop162" />
      <stop
         offset="1"
         id="stop164" />
    </linearGradient>
    <radialGradient
       inkscape:collect="always"
       xlink:href="#linearGradient443"
       id="radialGradient4486"
       gradientUnits="userSpaceOnUse"
       gradientTransform="scale(1.4598,0.685)"
       cx="169.88"
       cy="1794.9"
       r="44.525002" />
  </defs>
  <sodipodi:namedview
     id="base"
     pagecolor="#ffffff"
     bordercolor="#666666"
     borderopacity="1.0"
     inkscape:pageopacity="0.0"
     inkscape:pageshadow="2"
     inkscape:zoom="0.35"
     inkscape:cx="382.73744"
     inkscape:cy="180.61909"
     inkscape:document-units="px"
     inkscape:current-layer="layer1"
     showgrid="false"
     fit-margin-top="10"
     fit-margin-left="10"
     fit-margin-right="10"
     fit-margin-bottom="10" />
  <metadata
     id="metadata7">
    <rdf:RDF>
      <cc:Work
         rdf:about="">
        <dc:format>image/svg+xml</dc:format>
        <dc:type
           rdf:resource="http://purl.org/dc/dcmitype/StillImage" />
        <dc:title />
      </cc:Work>
    </rdf:RDF>
  </metadata>
  <g
     inkscape:label="Layer 1"
     inkscape:groupmode="layer"
     id="layer1"
     transform="translate(-43.691137,-359.75471)">
    <g
       id="g4450">
      <g
         id="layer1-2"
         transform="translate(73.600135,372.34919)">
        <g
           id="g619"
           transform="matrix(2.3964,0,0,2.3964,-440.31,-2735.1)">
          <path
             inkscape:connector-curvature="0"
             id="path620"
             style="fill:url(#linearGradient648);fill-rule:evenodd;stroke:#000000;stroke-width:1px"
             d="m 202.47,1162 46.06,-10.6 14.17,3.5 -3.54,56.7 -42.52,17.7 -14.17,-10.6 0,-56.7 z" />
          <path
             inkscape:connector-curvature="0"
             id="path621"
             style="fill:url(#linearGradient649);fill-rule:evenodd"
             d="m 203.93,1163.2 0,54.3 12.86,9.6 0,-58.9 c -6.59,-0.1 -11.4,-3.1 -12.86,-5 z" />
          <path
             inkscape:connector-curvature="0"
             id="path622"
             style="fill:url(#linearGradient650);fill-rule:evenodd;stroke:#000000;stroke-linecap:round;stroke-linejoin:round;stroke-opacity:0.19607999"
             d="m 207.06,1162.3 c 1.91,2 5.06,3.8 9.45,3.9 l 42.77,-11.7 -9.22,-2.2 -43,10 z" />
          <path
             inkscape:connector-curvature="0"
             id="path623"
             style="fill:url(#linearGradient651);fill-rule:evenodd"
             d="m 218.75,1168.2 41.75,-11.4 -1.25,24.4 c -1.42,26.9 -31.08,-18.8 -40.5,16.3 l 0,-29.3 z" />
          <path
             inkscape:connector-curvature="0"
             id="path624"
             style="fill:url(#linearGradient652);fill-rule:evenodd;stroke:#000000;stroke-linecap:round;stroke-linejoin:round;stroke-opacity:0.39216003"
             d="m 202.66,1172.3 c 3.53,3.4 8.66,5.9 13.96,5.8 l -0.17,20.2 c -4.66,-0.5 -11.08,-2.9 -13.61,-6.7 l -0.18,-19.3 z" />
          <path
             inkscape:connector-curvature="0"
             id="path625"
             style="fill:url(#linearGradient653);fill-rule:evenodd"
             d="m 203.85,1175.1 c 2.17,2.5 7.57,4.7 11.24,4.5 0,3.6 0.66,8.9 -1.13,10.1 -3.4,2.3 -5.29,-10.3 -9.96,-3.9 -0.17,-3.5 0.02,-7.3 -0.15,-10.7 z" />
          <path
             inkscape:connector-curvature="0"
             id="path626"
             style="fill:url(#linearGradient654);fill-rule:evenodd"
             d="m 207.06,1162.3 c 1.91,2 5.06,3.8 9.45,3.9 l 42.77,-11.7 -9.22,-2.2 -43,10 z" />
        </g>
        <g
           id="g627"
           transform="matrix(2.3964,0,0,2.3964,-440.31,-2735.1)">
          <path
             inkscape:connector-curvature="0"
             id="path628"
             style="fill:url(#radialGradient4486)"
             transform="matrix(0.57678,-0.12442,-0.026664,0.73838,147.49,344.51)"
             d="m 313,1229.5 c 0,16.8 -29.1,30.5 -65,30.5 -35.9,0 -65,-13.7 -65,-30.5 0,-16.8 29.1,-30.5 65,-30.5 35.9,0 65,13.7 65,30.5 z" />
          <path
             inkscape:connector-curvature="0"
             id="path629"
             style="fill:url(#radialGradient656)"
             transform="matrix(0.98985,-0.14211,0.12231,0.85192,-145.37,225.56)"
             d="m 313,1229.5 c 0,16.8 -29.1,30.5 -65,30.5 -35.9,0 -65,-13.7 -65,-30.5 0,-16.8 29.1,-30.5 65,-30.5 35.9,0 65,13.7 65,30.5 z" />
        </g>
        <g
           id="g630"
           transform="matrix(2.3964,0,0,2.3964,-440.31,-2735.1)">
          <path
             inkscape:connector-curvature="0"
             id="path631"
             style="fill:url(#linearGradient657);fill-rule:evenodd;stroke:#000000;stroke-width:1px"
             d="m 199.43,1218.2 53.14,-21.3 35.44,21.3 0,14.2 -53.15,28.3 -35.43,-28.3 0,-14.2 z" />
          <path
             inkscape:connector-curvature="0"
             id="path632"
             style="fill:url(#linearGradient658);fill-rule:evenodd;stroke:#000000;stroke-width:2;stroke-linecap:round;stroke-linejoin:round;stroke-opacity:0.19607999"
             d="m 287.32,1219.6 -52.5,26.8 -34.64,-25.5 -0.36,8.9 35.18,28.1 52.5,-27.5 -0.18,-10.8 z" />
          <path
             inkscape:connector-curvature="0"
             id="path633"
             style="fill:url(#linearGradient659);fill-rule:evenodd"
             d="m 203.65,1218.8 48.79,-20.1 32.17,19.8 c -6.25,3.2 -15.54,7.6 -21.21,8.5 -25.44,3.8 -17.33,-13.1 -59.75,-8.2 z" />
          <path
             inkscape:connector-curvature="0"
             id="path634"
             style="fill:url(#linearGradient660);fill-rule:evenodd;stroke:#000000;stroke-linecap:round;stroke-linejoin:round;stroke-opacity:0.39216003"
             d="m 252.25,1200.8 -15.5,6.4 28.75,17.3 15,-6.5 -28.25,-17.2 z" />
          <path
             inkscape:connector-curvature="0"
             id="path635"
             style="fill:url(#linearGradient661);fill-rule:evenodd;stroke:#000000;stroke-linecap:round;stroke-linejoin:round;stroke-opacity:0.19607999"
             d="m 287.32,1219.6 -52.5,26.8 -34.64,-25.5 -0.36,8.9 35.18,28.1 52.5,-27.5 -0.18,-10.8 z" />
          <path
             inkscape:connector-curvature="0"
             id="path636"
             style="fill:url(#linearGradient662);fill-rule:evenodd"
             d="m 287.32,1219.6 -52.5,26.8 0.18,11.5 52.5,-27.5 -0.18,-10.8 z" />
          <path
             inkscape:connector-curvature="0"
             id="path637"
             style="fill:url(#linearGradient663);fill-rule:evenodd"
             d="m 234.82,1246.4 -34.64,-25.5 -0.36,8.9 35.18,28.1 -0.18,-11.5 z" />
          <path
             inkscape:connector-curvature="0"
             id="path638"
             style="fill:url(#linearGradient664);fill-rule:evenodd;stroke:#000000;stroke-linecap:round;stroke-linejoin:round"
             d="m 203.48,1227.2 c 3.36,2.8 6.72,5.5 10.08,8.3 -4.23,1.4 -4.95,16.8 -14.18,17.7 1.57,-5.2 1.64,-8.3 1.71,-12.3 -2.43,1.5 -6.36,2.7 -8.79,1.7 6.73,-4.9 7.45,-14.5 11.18,-15.4 z" />
          <path
             inkscape:connector-curvature="0"
             id="path639"
             style="fill:url(#linearGradient665);fill-rule:evenodd"
             d="m 202.49,1229.6 c -0.94,0.6 -2.08,4.4 -3.44,7.1 3.18,-3.1 4.35,7.1 7.43,6.9 1.82,-0.2 2.92,-4.4 3.84,-6.8 0.86,-2.3 -6.36,-8.2 -7.83,-7.2 z" />
          <path
             inkscape:connector-curvature="0"
             id="path640"
             style="fill:url(#linearGradient666);fill-rule:evenodd"
             d="m 252.12,1202.2 -12.5,5.2 c 11.96,-3.7 18.76,5.9 25.63,11.5 4.76,3.8 14.83,-1 7.87,-4.1 l -21,-12.6 z" />
        </g>
      </g>
      <g
         id="layer1-3"
         transform="matrix(-0.48918491,0,0,0.48918491,424.42939,382.04533)">
        <g
           id="g145"
           transform="translate(26.272,22.396)">
          <path
             style="fill:#3e3d40;stroke:#000000"
             inkscape:connector-curvature="0"
             id="path147"
             d="m 331.58,416.21 -0.108,11.205 47.483,116.95 0,5.085 c 0,17.521 -43.177,31.726 -96.441,31.726 -53.263,0 -96.442,-14.204 -96.442,-31.726 l 0.381,-6.083 48.605,-116.49 0,-11.205" />
          <path
             style="fill:#373739;stroke:#000000"
             inkscape:connector-curvature="0"
             id="path149"
             d="m 350.93,374.93 0,26.815 c 0,10.983 -30.273,19.887 -67.618,19.887 -37.344,0 -67.618,-8.903 -67.618,-19.887 l 0,-26.815" />
          <ellipse
             style="stroke:#000000"
             id="ellipse151"
             rx="67.617996"
             ry="19.886999"
             cy="374.92999"
             cx="283.31" />
          <ellipse
             style="fill:#58585a;stroke:#000000"
             id="ellipse153"
             rx="53.007999"
             ry="12.295"
             cy="374.82001"
             cx="283.92001" />
          <path
             style="fill:none;stroke:#000000"
             inkscape:connector-curvature="0"
             id="path155"
             d="m 377.96,544.08 c 0,16.412 -42.817,29.712 -95.633,29.712 -52.816,0 -95.632,-13.3 -95.632,-29.712" />
          <path
             style="fill:none;stroke:#000000"
             inkscape:connector-curvature="0"
             id="path157"
             d="m 331.51,423.46 c 0,4.418 -21.463,7.999 -47.939,7.999 -26.476,0 -47.939,-3.581 -47.939,-7.999" />
          <g
             id="g159">
            <path
               style="fill:url(#SVGID_1_)"
               inkscape:connector-curvature="0"
               id="path166"
               d="m 290.75,384.34 c 0,0 5.154,-15.189 5.054,-27.363 -0.102,-12.175 7.7,-16.656 11.456,-13.454 3.76,3.2 -18.848,-8.724 -16.829,2.629 0,0 6.947,-24.098 11.039,-25.689 4.091,-1.594 -19.477,-8.244 -17.89,3.019 0,0 13.292,-61.692 -20.304,-106.85 0,0 15.89,83.607 3.077,107.04 l -3.674,-8.334 c 0,0 -0.593,-107.46 -38.41,-166.24 -37.82,-58.784 -49.43,-64.2 -49.43,-64.2 0,0 23.186,46.247 13.753,102.86 l -2.833,-3.786 c 0,0 3.221,-104.08 -48.66,-148.73 L 102.499,4.47 c 0,0 47.047,83.244 35.018,121.75 C 125.488,164.726 121.35,27.163 99.209,12.91 77.071,-1.343 54.029,10.552 27.077,45.949 c 0,0 2.294,95.468 38.368,124.73 36.079,29.257 119.46,42.728 129.28,36.51 0,0 -28.807,16.26 -70.369,0.458 -41.567,-15.81 -61.295,-53.87 -61.295,-53.87 0,0 73.472,126.85 111.63,137.69 38.158,10.84 -12.658,4.095 -17.55,-1.161 -4.9,-5.253 50.608,72.756 106.22,49.597 0,0 -21.635,23.621 -43.363,14.314 0,0 39.323,19.974 52.673,7.326 0,0 -8.87,8.324 -5.758,23.547 0,0 4.294,-19.148 12.625,-6.52 8.329,12.631 11.202,5.763 11.202,5.763 z" />
            <path
               style="fill:#b0b1b1"
               inkscape:connector-curvature="0"
               id="path168"
               d="M 290.75,387.34 C 269.85,331.21 242.01,267.55 209.41,219.95 135.85,112.53 70.24,62.65 29.32,49.41 l 0.033,4.057 c 0,0 117,65.266 179.17,180.08 36.401,67.225 56.742,110.88 72.785,152.57" />
          </g>
        </g>
      </g>
    </g>
  </g>
</svg>
